User Type,Username,Date,Text
,jammeke,2011-03-27T18:42Z,"beetje meer info, wat is de kwaliteit .. enz...
Op deze manier is het een beetje amateuristisch "
[V],MAFIAA.,2011-03-28T11:36Z,"@avd17 please add more info in description or else i will report the torrent as misleading title because, nor we know its Screener, R5 or BR rip, maybe its TS so it will be time lose downloading it. next release please add more information about your upload.

Except of that you are doing great :)

-Stun"
,avd17,2011-03-28T18:52Z,"by some way the edit function dont work

DVD5 rip

General
Complete name                    : H:\Films\The Fighter (2010)\The Fighter (2010)\VIDEO_TS\VTS_01_1.VOB
Format                           : MPEG-PS
File size                        : 1 024 MiB
Duration                         : 27mn 57s
Overall bit rate                 : 5 122 Kbps

Video
ID                               : 224 (0xE0)
Format                           : MPEG Video
Format version                   : Version 2
Format profile                   : Main@Main
Format settings, Matrix          : Default
Duration                         : 27mn 57s
Bit rate mode                    : Variable
Bit rate                         : 4 471 Kbps
Nominal bit rate                 : 9 360 Kbps
Width                            : 720 pixels
Height                           : 480 pixels
Display aspect ratio             : 16:9
Frame rate                       : 23.976 fps
Standard                         : NTSC
Colorimetry                      : 4:2:0
Scan type                        : Progressive
Scan order                       : 2:3 Pulldown
Bits/(Pixel*Frame)               : 0.540
Stream size                      : 894 MiB (87%)

Audio
ID                               : 128 (0x80)
Format                           : AC-3
Format/Info                      : Audio Coding 3
Duration                         : 27mn 56s
Bit rate mode                    : Constant
Bit rate                         : 448 Kbps
Channel(s)                       : 6 channels
Channel positions                : Front: L C R, Surround: L R, LFE
Sampling rate                    : 48.0 KHz
Stream size                      : 89.6 MiB (9%)

Text
ID                               : 32 (0x20)
Format                           : RLE
Format/Info                      : Run-length encoding

Menu
"
,avd17,2011-03-28T18:53Z,"i know this is about a vob file, but its really a iso file"
[V],MAFIAA.,2011-03-28T23:08Z,Thanks for description :)
